<svg width="128" height="128" viewBox="0 0 128 128" fill="none" xmlns="http://www.w3.org/2000/svg">
<rect width="128" height="128" rx="64" fill="#1D2129"/>
<path d="M46.0052 96.4147C46.3195 98.4687 48.2884 100 50.6148 100H77.3852C79.7116 100 81.6805 98.4687 81.9948 96.4146L89.9891 44.1764C90.0844 43.5541 89.5415 43 88.8367 43H39.1633C38.4585 43 37.9156 43.5541 38.0109 44.1764L46.0052 96.4147Z" fill="white"/>
<path fill-rule="evenodd" clip-rule="evenodd" d="M80 64C80 64.8199 79.6872 65.6399 79.0616 66.2655L72.2655 73.0616C71.0143 74.3128 68.9857 74.3128 67.7345 73.0616L64.8486 70.1755L64.8038 70.133C64.3338 69.7083 63.6087 69.7216 63.1545 70.1726L60.2655 73.0616C59.0143 74.3128 56.9857 74.3128 55.7345 73.0616L48.9384 66.2655C48.3128 65.6399 48 64.8199 48 64C48 63.1801 48.3128 62.3601 48.9384 61.7346L55.7345 54.9384C56.9857 53.6872 59.0143 53.6872 60.2655 54.9384L63.1545 57.8274C63.6087 58.2784 64.3338 58.2917 64.8038 57.867L64.8486 57.8245L67.7345 54.9384C68.9857 53.6872 71.0143 53.6872 72.2655 54.9384L79.0616 61.7346C79.6872 62.3601 80 63.1801 80 64ZM63.8424 64C63.8424 63.7251 63.7375 63.4501 63.5281 63.2407L60.6514 60.3639C60.6486 60.3611 60.6457 60.3583 60.6429 60.3555L58.7526 58.465C58.3364 58.0488 57.6636 58.0488 57.2474 58.465L52.4717 63.2407C52.2623 63.4501 52.1575 63.725 52.1575 64C52.1575 64.275 52.2623 64.5499 52.4717 64.7593L57.2474 69.535C57.6636 69.9512 58.3364 69.9512 58.7526 69.535L60.6429 67.6445C60.6457 67.6417 60.6486 67.6389 60.6514 67.6361L63.5281 64.7593C63.7375 64.5499 63.8424 64.275 63.8424 64ZM68 64C68 64.8199 67.6872 65.6399 67.0616 66.2655L66.4146 66.9124C66.7508 67.1115 67.0679 67.3555 67.3571 67.6447L69.2472 69.535C69.6634 69.9512 70.3362 69.9512 70.7524 69.535L75.5281 64.7593C75.7375 64.5499 75.8424 64.275 75.8424 64C75.8424 63.725 75.7375 63.4501 75.5281 63.2407L70.7524 58.465C70.3362 58.0488 69.6634 58.0488 69.2472 58.465L67.3571 60.3553C67.0679 60.6445 66.7508 60.8885 66.4146 61.0876L67.0616 61.7346C67.6872 62.3601 68 63.1801 68 64Z" fill="#1D2129"/>
<path d="M87.6716 33.2C88.2387 33.2001 88.7227 33.5677 88.8159 34.0691L89.992 40.3944C90.0509 40.7114 89.7782 41 89.4198 41H38.5802C38.2217 41 37.9491 40.7114 38.008 40.3944L39.1841 34.0691C39.2773 33.5677 39.7613 33.2 40.3284 33.2H43.6963L46.2762 28.5748C46.4727 28.2225 46.8746 28 47.314 28H80.686C81.1254 28 81.527 28.2226 81.7235 28.5748L84.3034 33.2H87.6716Z" fill="white"/>
</svg>
