<svg width="64" height="64" viewBox="0 0 64 64" fill="none" xmlns="http://www.w3.org/2000/svg">
<rect width="64" height="64" rx="32" fill="#1D2129"/>
<path d="M23.0026 48.2388C23.1598 49.2478 24.1442 50 25.3074 50H38.6926C39.8558 50 40.8402 49.2478 40.9974 48.2388L44.9946 22.5779C45.0422 22.2722 44.7708 22 44.4184 22H19.5816C19.2292 22 18.9578 22.2722 19.0054 22.5779L23.0026 48.2388Z" fill="white"/>
<path fill-rule="evenodd" clip-rule="evenodd" d="M39 32C39 32.328 38.8632 32.656 38.5895 32.9062L35.6161 35.6247C35.0688 36.1251 34.1812 36.1251 33.6339 35.6247L32.3713 34.4702L32.3517 34.4532C32.146 34.2833 31.8288 34.2886 31.6301 34.469L30.3661 35.6247C29.8188 36.1251 28.9312 36.1251 28.3839 35.6247L25.4105 32.9062C25.1368 32.656 25 32.328 25 32C25 31.672 25.1368 31.3441 25.4105 31.0938L28.3839 28.3753C28.9312 27.8749 29.8188 27.8749 30.3661 28.3753L31.6301 29.531C31.8288 29.7114 32.146 29.7167 32.3517 29.5468L32.3713 29.5298L33.6339 28.3753C34.1812 27.8749 35.0688 27.8749 35.6161 28.3753L38.5895 31.0938C38.8632 31.3441 39 31.672 39 32ZM31.931 32C31.931 31.89 31.8852 31.7801 31.7936 31.6963L30.535 30.5455C30.5338 30.5444 30.5325 30.5433 30.5313 30.5422L29.7043 29.786C29.5222 29.6195 29.2278 29.6195 29.0457 29.786L26.9564 31.6963C26.8648 31.7801 26.8189 31.89 26.8189 32C26.8189 32.11 26.8648 32.22 26.9564 32.3037L29.0457 34.214C29.2278 34.3805 29.5222 34.3805 29.7043 34.214L30.5313 33.4578C30.5325 33.4567 30.5338 33.4556 30.535 33.4545L31.7936 32.3037C31.8852 32.22 31.931 32.11 31.931 32ZM33.75 32C33.75 32.328 33.6132 32.656 33.3395 32.9062L33.0564 33.165C33.2035 33.2446 33.3422 33.3422 33.4687 33.4579L34.2957 34.214C34.4777 34.3805 34.7721 34.3805 34.9542 34.214L37.0436 32.3037C37.1352 32.22 37.181 32.11 37.181 32C37.181 31.89 37.1352 31.7801 37.0436 31.6963L34.9542 29.786C34.7721 29.6195 34.4777 29.6195 34.2957 29.786L33.4687 30.5421C33.3422 30.6578 33.2035 30.7554 33.0564 30.835L33.3395 31.0938C33.6132 31.3441 33.75 31.672 33.75 32Z" fill="#1D2129"/>
<path d="M43.8358 16.4C44.1193 16.4 44.3613 16.5697 44.4079 16.8011L44.996 19.7205C45.0254 19.8668 44.8891 20 44.7099 20H19.2901C19.1109 20 18.9746 19.8668 19.004 19.7205L19.5921 16.8011C19.6387 16.5697 19.8807 16.4 20.1642 16.4H21.8482L23.1381 14.2653C23.2364 14.1027 23.4373 14 23.657 14H40.343C40.5627 14 40.7635 14.1027 40.8618 14.2653L42.1517 16.4H43.8358Z" fill="white"/>
</svg>
