<svg width="96" height="96" viewBox="0 0 96 96" fill="none" xmlns="http://www.w3.org/2000/svg">
<rect width="96" height="96" rx="48" fill="#1D2129"/>
<path d="M34.1578 73.2324C34.3996 74.8179 35.9141 76 37.7037 76H58.2963C60.0859 76 61.6003 74.8179 61.8421 73.2324L67.9916 32.9081C68.0649 32.4277 67.6473 32 67.1052 32H28.8948C28.3527 32 27.9351 32.4277 28.0084 32.9081L34.1578 73.2324Z" fill="white"/>
<path fill-rule="evenodd" clip-rule="evenodd" d="M59 48C59 48.574 58.785 49.1479 58.3549 49.5858L53.6825 54.3432C52.8223 55.2189 51.4277 55.2189 50.5675 54.3432L48.5834 52.3229L48.5526 52.2931C48.2295 51.9958 47.731 52.0051 47.4187 52.3208L45.4325 54.3432C44.5723 55.219 43.1777 55.2189 42.3175 54.3432L37.6451 49.5858C37.215 49.1479 37 48.574 37 48C37 47.426 37.215 46.8521 37.6451 46.4142L42.3175 41.6569C43.1777 40.781 44.5723 40.781 45.4325 41.6569L47.4187 43.6792C47.731 43.9949 48.2295 44.0042 48.5526 43.7069L48.5834 43.6771L50.5675 41.6569C51.4277 40.7811 52.8223 40.7811 53.6825 41.6569L58.3549 46.4142C58.785 46.8521 59 47.426 59 48ZM47.8916 48C47.8916 47.8075 47.8196 47.6151 47.6756 47.4685L45.6978 45.4547C45.6959 45.4527 45.6939 45.4508 45.692 45.4489L44.3924 44.1255C44.1063 43.8341 43.6437 43.8342 43.3576 44.1255L40.0743 47.4685C39.9303 47.6151 39.8583 47.8075 39.8583 48C39.8583 48.1925 39.9303 48.3849 40.0743 48.5315L43.3576 51.8745C43.6437 52.1658 44.1063 52.1659 44.3924 51.8745L45.692 50.5512C45.6939 50.5492 45.6959 50.5473 45.6978 50.5453L47.6756 48.5315C47.8195 48.3849 47.8916 48.1925 47.8916 48ZM50.75 48C50.75 48.574 50.535 49.1479 50.1049 49.5858L49.66 50.0387C49.8912 50.1781 50.1092 50.3488 50.308 50.5513L51.6075 51.8745C51.8936 52.1659 52.3562 52.1658 52.6423 51.8745L55.9256 48.5315C56.0696 48.3849 56.1416 48.1925 56.1416 48C56.1416 47.8075 56.0696 47.6151 55.9256 47.4685L52.6423 44.1255C52.3562 43.8342 51.8936 43.8341 51.6075 44.1255L50.308 45.4487C50.1092 45.6512 49.8912 45.822 49.66 45.9613L50.1049 46.4142C50.535 46.8521 50.75 47.426 50.75 48Z" fill="#1D2129"/>
<path d="M66.2089 24C66.6451 24 67.0174 24.2828 67.0892 24.6686L67.9938 29.5342C68.0391 29.778 67.8294 30 67.5537 30H28.4463C28.1706 30 27.9609 29.778 28.0062 29.5342L28.9108 24.6686C28.9826 24.2828 29.3549 24 29.7911 24H32.3818L34.3663 20.4422C34.5175 20.1712 34.8266 20 35.1646 20H60.8354C61.1734 20 61.4823 20.1712 61.6335 20.4422L63.618 24H66.2089Z" fill="white"/>
</svg>
