<svg width="256" height="256" viewBox="0 0 256 256" fill="none" xmlns="http://www.w3.org/2000/svg">
<rect width="256" height="256" rx="128" fill="#1D2129"/>
<path d="M92.7025 191.955C93.3191 195.991 97.181 199 101.744 199H154.256C158.819 199 162.681 195.991 163.297 191.955L178.979 89.3115C179.165 88.0888 178.101 87 176.718 87H79.2818C77.8993 87 76.8345 88.0888 77.0213 89.3115L92.7025 191.955Z" fill="white"/>
<path fill-rule="evenodd" clip-rule="evenodd" d="M154 128C154 129.312 153.492 130.624 152.475 131.625L141.431 142.499C139.398 144.5 136.102 144.5 134.069 142.499L129.379 137.881L129.306 137.813C128.542 137.133 127.364 137.155 126.626 137.876L121.931 142.499C119.898 144.5 116.602 144.5 114.569 142.499L103.525 131.625C102.508 130.624 102 129.312 102 128C102 126.688 102.508 125.376 103.525 124.375L114.569 113.501C116.602 111.5 119.898 111.5 121.931 113.501L126.626 118.124C127.364 118.845 128.542 118.867 129.306 118.187L129.379 118.119L134.069 113.501C136.102 111.5 139.398 111.5 141.431 113.501L152.475 124.375C153.492 125.376 154 126.688 154 128ZM127.744 128C127.744 127.56 127.573 127.12 127.233 126.785L122.559 122.182C122.554 122.178 122.549 122.173 122.545 122.169L119.473 119.144C118.797 118.478 117.703 118.478 117.027 119.144L109.267 126.785C108.926 127.12 108.756 127.56 108.756 128C108.756 128.44 108.926 128.88 109.267 129.215L117.027 136.856C117.703 137.522 118.797 137.522 119.473 136.856L122.545 133.831C122.549 133.827 122.554 133.822 122.559 133.818L127.233 129.215C127.573 128.88 127.744 128.44 127.744 128ZM134.5 128C134.5 129.312 133.992 130.624 132.975 131.625L131.924 132.66C132.47 132.978 132.985 133.369 133.455 133.831L136.527 136.856C137.203 137.522 138.296 137.522 138.973 136.856L146.733 129.215C147.073 128.88 147.244 128.44 147.244 128C147.244 127.56 147.073 127.12 146.733 126.785L138.973 119.144C138.296 118.478 137.203 118.478 136.527 119.144L133.455 122.169C132.985 122.631 132.47 123.022 131.924 123.34L132.975 124.375C133.992 125.376 134.5 126.688 134.5 128Z" fill="#1D2129"/>
<path d="M174.433 67C175.545 67.0001 176.494 67.7071 176.677 68.6714L178.984 80.8354C179.1 81.4449 178.565 81.9999 177.862 82H78.1381C77.435 82 76.9002 81.445 77.0158 80.8354L79.3227 68.6714C79.5055 67.707 80.4549 67 81.5673 67H88.1735L93.234 58.1055C93.6196 57.4279 94.4078 57 95.2698 57H160.73C161.592 57 162.38 57.428 162.765 58.1055L167.826 67H174.433Z" fill="white"/>
</svg>
