<svg width="48" height="48" viewBox="0 0 48 48" fill="none" xmlns="http://www.w3.org/2000/svg">
<rect width="48" height="48" rx="24" fill="#1D2129"/>
<path d="M17.771 34.8049C17.8798 35.4896 18.5614 36 19.3667 36H28.6333C29.4386 36 30.1202 35.4896 30.229 34.8049L32.9962 17.3921C33.0292 17.1847 32.8413 17 32.5973 17H15.4027C15.1587 17 14.9708 17.1847 15.0038 17.3921L17.771 34.8049Z" fill="white"/>
<path fill-rule="evenodd" clip-rule="evenodd" d="M30 24.5C30 24.787 29.8827 25.074 29.6481 25.2929L27.0995 27.6716C26.6304 28.1095 25.8696 28.1095 25.4005 27.6716L24.3182 26.6614L24.3014 26.6465C24.1252 26.4979 23.8533 26.5026 23.6829 26.6604L22.5995 27.6716C22.1304 28.1095 21.3696 28.1095 20.9005 27.6716L18.3519 25.2929C18.1173 25.074 18 24.787 18 24.5C18 24.213 18.1173 23.926 18.3519 23.7071L20.9005 21.3284C21.3696 20.8905 22.1304 20.8905 22.5995 21.3284L23.6829 22.3396C23.8533 22.4974 24.1252 22.5021 24.3014 22.3535L24.3182 22.3386L25.4005 21.3284C25.8696 20.8905 26.6304 20.8905 27.0995 21.3284L29.6481 23.7071C29.8827 23.926 30 24.213 30 24.5ZM23.9409 24.5C23.9409 24.4038 23.9016 24.3075 23.823 24.2343L22.7443 23.2274C22.7432 23.2264 22.7421 23.2254 22.7411 23.2244L22.0322 22.5627C21.8762 22.4171 21.6238 22.4171 21.4678 22.5627L19.6769 24.2343C19.5984 24.3075 19.559 24.4038 19.559 24.5C19.559 24.5962 19.5984 24.6925 19.6769 24.7657L21.4678 26.4373C21.6238 26.5829 21.8762 26.5829 22.0322 26.4373L22.7411 25.7756C22.7421 25.7746 22.7432 25.7736 22.7443 25.7726L23.823 24.7657C23.9016 24.6925 23.9409 24.5962 23.9409 24.5ZM25.5 24.5C25.5 24.787 25.3827 25.074 25.1481 25.2929L24.9055 25.5194C25.0315 25.589 25.1505 25.6744 25.2589 25.7756L25.9677 26.4373C26.1238 26.5829 26.3761 26.5829 26.5322 26.4373L28.323 24.7657C28.4016 24.6925 28.4409 24.5962 28.4409 24.5C28.4409 24.4038 28.4016 24.3075 28.323 24.2343L26.5322 22.5627C26.3761 22.4171 26.1238 22.4171 25.9677 22.5627L25.2589 23.2244C25.1505 23.3256 25.0315 23.411 24.9055 23.4807L25.1481 23.7071C25.3827 23.926 25.5 24.213 25.5 24.5Z" fill="#1D2129"/>
<path d="M32.194 13.6C32.3903 13.6 32.5578 13.7131 32.5901 13.8674L32.9972 15.8137C33.0176 15.9112 32.9232 16 32.7992 16H15.2008C15.0768 16 14.9824 15.9112 15.0028 15.8137L15.4099 13.8674C15.4422 13.7131 15.6097 13.6 15.806 13.6H16.9718L17.8648 12.1769C17.9329 12.0685 18.072 12 18.2241 12H29.7759C29.928 12 30.067 12.0685 30.1351 12.1769L31.0281 13.6H32.194Z" fill="white"/>
</svg>
