<svg width="32" height="32" viewBox="0 0 32 32" fill="none" xmlns="http://www.w3.org/2000/svg">
<path d="M9.07892 28.6162C9.19982 29.409 9.95706 30 10.8519 30H21.1481C22.0429 30 22.8002 29.409 22.9211 28.6162L25.9958 8.45404C26.0324 8.21387 25.8237 8 25.5526 8H6.44741C6.17633 8 5.96755 8.21387 6.00418 8.45405L9.07892 28.6162Z" fill="#1D2129"/>
<path fill-rule="evenodd" clip-rule="evenodd" d="M22.3333 16C22.3333 16.328 22.2079 16.656 21.957 16.9062L19.2315 19.6247C18.7297 20.1251 17.9161 20.1251 17.4144 19.6247L16.257 18.4702L16.239 18.4532C16.0505 18.2833 15.7597 18.2886 15.5776 18.469L14.419 19.6247C13.9172 20.1251 13.1036 20.1251 12.6019 19.6247L9.87632 16.9062C9.62544 16.656 9.5 16.328 9.5 16C9.5 15.672 9.62544 15.3441 9.87632 15.0938L12.6019 12.3753C13.1036 11.8749 13.9172 11.8749 14.419 12.3753L15.5776 13.531C15.7597 13.7114 16.0505 13.7167 16.239 13.5468L16.257 13.5298L17.4144 12.3753C17.9161 11.8749 18.7297 11.8749 19.2315 12.3753L21.957 15.0938C22.2079 15.3441 22.3333 15.672 22.3333 16ZM15.8534 16C15.8534 15.89 15.8114 15.7801 15.7274 15.6963L14.5737 14.5455C14.5726 14.5444 14.5715 14.5433 14.5703 14.5422L13.8122 13.786C13.6453 13.6195 13.3755 13.6195 13.2086 13.786L11.2933 15.6963C11.2094 15.7801 11.1673 15.89 11.1673 16C11.1673 16.11 11.2094 16.22 11.2933 16.3037L13.2086 18.214C13.3755 18.3805 13.6453 18.3805 13.8122 18.214L14.5703 17.4578C14.5714 17.4567 14.5726 17.4556 14.5737 17.4545L15.7274 16.3037C15.8114 16.22 15.8534 16.11 15.8534 16ZM17.5208 16C17.5208 16.328 17.3954 16.656 17.1445 16.9062L16.885 17.165C17.0198 17.2446 17.147 17.3422 17.263 17.4579L18.021 18.214C18.1879 18.3805 18.4578 18.3805 18.6247 18.214L20.5399 16.3037C20.6239 16.22 20.6659 16.11 20.6659 16C20.6659 15.89 20.6239 15.7801 20.5399 15.6963L18.6247 13.786C18.4578 13.6195 18.1879 13.6195 18.021 13.786L17.263 14.5421C17.147 14.6578 17.0198 14.7554 16.885 14.835L17.1445 15.0938C17.3954 15.3441 17.5208 15.672 17.5208 16Z" fill="white"/>
<path d="M25.1044 4C25.3226 4.00002 25.5087 4.14142 25.5446 4.33428L25.9969 6.76709C26.0196 6.88899 25.9147 6.99999 25.7768 7H6.22316C6.08528 7 5.98043 6.889 6.00309 6.76709L6.45542 4.33428C6.49128 4.14141 6.67743 4.00001 6.89555 4H8.19089L9.18315 2.22109C9.25874 2.08558 9.4133 2 9.58231 2H22.4177C22.5867 2 22.7412 2.0856 22.8167 2.22109L23.809 4H25.1044Z" fill="#1D2129"/>
</svg>
