<svg width="128" height="128" viewBox="0 0 128 128" fill="none" xmlns="http://www.w3.org/2000/svg">
<path d="M36.3157 114.465C36.7993 117.636 39.8282 120 43.4074 120H84.5926C88.1717 120 91.2007 117.636 91.6843 114.465L103.983 33.8162C104.13 32.8555 103.295 32 102.21 32H25.7897C24.7053 32 23.8702 32.8555 24.0167 33.8162L36.3157 114.465Z" fill="#1D2129"/>
<path fill-rule="evenodd" clip-rule="evenodd" d="M85 64C85 65.0659 84.5895 66.1318 83.7684 66.9451L74.8484 75.7801C73.2063 77.4066 70.5437 77.4066 68.9016 75.7801L65.1138 72.0282L65.055 71.9729C64.4381 71.4208 63.4864 71.4381 62.8903 72.0244L59.0984 75.7801C57.4563 77.4066 54.7937 77.4066 53.1516 75.7801L44.2316 66.9451C43.4105 66.1318 43 65.0659 43 64C43 62.9341 43.4105 61.8682 44.2316 61.0549L53.1516 52.2199C54.7937 50.5934 57.4563 50.5934 59.0984 52.2199L62.8903 55.9757C63.4864 56.5619 64.4381 56.5792 65.055 56.0271L65.1138 55.9718L68.9016 52.2199C70.5437 50.5934 73.2063 50.5934 74.8484 52.2199L83.7684 61.0549C84.5895 61.8682 85 62.9341 85 64ZM63.7931 64C63.7931 63.6426 63.6555 63.2852 63.3807 63.0129L59.6049 59.273C59.6013 59.2694 59.5975 59.2658 59.5938 59.2622L57.1128 56.8045C56.5666 56.2634 55.6835 56.2634 55.1372 56.8045L48.8691 63.0129C48.5943 63.2852 48.4567 63.6426 48.4567 64C48.4567 64.3574 48.5943 64.7148 48.8691 64.9871L55.1372 71.1955C55.6835 71.7366 56.5666 71.7366 57.1128 71.1955L59.5938 68.7379C59.5975 68.7342 59.6013 68.7306 59.6049 68.727L63.3807 64.9871C63.6555 64.7148 63.7931 64.3574 63.7931 64ZM69.25 64C69.25 65.0659 68.8395 66.1318 68.0184 66.9451L67.1691 67.7862C67.6104 68.045 68.0266 68.3621 68.4062 68.7381L70.887 71.1955C71.4332 71.7366 72.3163 71.7366 72.8626 71.1955L79.1307 64.9871C79.4055 64.7148 79.5431 64.3574 79.5431 64C79.5431 63.6426 79.4055 63.2852 79.1307 63.0129L72.8626 56.8045C72.3163 56.2634 71.4332 56.2634 70.887 56.8045L68.4062 59.2619C68.0266 59.6379 67.6104 59.9551 67.1691 60.2139L68.0184 61.0549C68.8395 61.8682 69.25 62.9341 69.25 64Z" fill="white"/>
<path d="M100.418 16C101.29 16.0001 102.035 16.5657 102.178 17.3371L103.988 27.0684C104.078 27.556 103.659 27.9999 103.107 28H24.8926C24.3411 28 23.9217 27.556 24.0124 27.0684L25.8217 17.3371C25.9651 16.5656 26.7097 16 27.5822 16H32.7636L36.7326 8.88438C37.0349 8.34234 37.6532 8 38.3293 8H89.6707C90.3467 8.00002 90.9646 8.34241 91.267 8.88438L95.236 16H100.418Z" fill="#1D2129"/>
</svg>
