<svg width="48" height="48" viewBox="0 0 48 48" fill="none" xmlns="http://www.w3.org/2000/svg">
<path d="M13.6184 42.9243C13.7997 44.1134 14.9356 45 16.2778 45H31.7222C33.0644 45 34.2003 44.1134 34.3816 42.9243L38.9937 12.6811C39.0487 12.3208 38.7355 12 38.3289 12H9.67112C9.2645 12 8.95133 12.3208 9.00627 12.6811L13.6184 42.9243Z" fill="#1D2129"/>
<path fill-rule="evenodd" clip-rule="evenodd" d="M34 24C34 24.492 33.8045 24.9839 33.4135 25.3593L29.1659 29.437C28.3839 30.1877 27.1161 30.1877 26.3341 29.437L24.5304 27.7053L24.5024 27.6798C24.2086 27.425 23.7554 27.433 23.4716 27.7036L21.6659 29.437C20.8839 30.1877 19.6161 30.1877 18.8341 29.437L14.5865 25.3593C14.1955 24.9839 14 24.492 14 24C14 23.508 14.1955 23.0161 14.5865 22.6407L18.8341 18.563C19.6161 17.8123 20.8839 17.8123 21.6659 18.563L23.4716 20.2965C23.7554 20.567 24.2086 20.575 24.5024 20.3202L24.5304 20.2947L26.3341 18.563C27.1161 17.8123 28.3839 17.8123 29.1659 18.563L33.4135 22.6407C33.8045 23.0161 34 23.508 34 24ZM23.9015 24C23.9015 23.835 23.836 23.6701 23.7051 23.5444L21.9071 21.8183C21.9054 21.8166 21.9036 21.815 21.9018 21.8133L20.7204 20.679C20.4603 20.4293 20.0397 20.4293 19.7796 20.679L16.7948 23.5444C16.6639 23.6701 16.5984 23.835 16.5984 24C16.5984 24.165 16.6639 24.3299 16.7948 24.4556L19.7796 27.321C20.0397 27.5707 20.4603 27.5707 20.7204 27.321L21.9018 26.1867C21.9036 26.185 21.9054 26.1834 21.9071 26.1817L23.7051 24.4556C23.836 24.3299 23.9015 24.165 23.9015 24ZM26.5 24C26.5 24.492 26.3045 24.9839 25.9135 25.3593L25.5091 25.7475C25.7192 25.8669 25.9175 26.0133 26.0982 26.1868L27.2795 27.321C27.5396 27.5707 27.9602 27.5707 28.2203 27.321L31.2051 24.4556C31.336 24.3299 31.4015 24.165 31.4015 24C31.4015 23.835 31.336 23.6701 31.2051 23.5444L28.2203 20.679C27.9602 20.4293 27.5396 20.4293 27.2795 20.679L26.0982 21.8132C25.9175 21.9867 25.7192 22.1331 25.5091 22.2525L25.9135 22.6407C26.3045 23.0161 26.5 23.508 26.5 24Z" fill="white"/>
<path d="M37.6567 6C37.9838 6.00003 38.2631 6.21213 38.3169 6.50142L38.9954 10.1506C39.0294 10.3335 38.8721 10.5 38.6653 10.5H9.33474C9.12793 10.5 8.97064 10.3335 9.00464 10.1506L9.68314 6.50142C9.73693 6.21211 10.0161 6.00001 10.3433 6H12.2863L13.7747 3.33164C13.8881 3.12838 14.1199 3 14.3735 3H33.6265C33.88 3.00001 34.1117 3.12841 34.2251 3.33164L35.7135 6H37.6567Z" fill="#1D2129"/>
</svg>
