<svg width="64" height="64" viewBox="0 0 64 64" fill="none" xmlns="http://www.w3.org/2000/svg">
<path d="M18.1578 57.2324C18.3996 58.8179 19.9141 60 21.7037 60H42.2963C44.0859 60 45.6003 58.8179 45.8421 57.2324L51.9916 16.9081C52.0649 16.4277 51.6473 16 51.1052 16H12.8948C12.3527 16 11.9351 16.4277 12.0084 16.9081L18.1578 57.2324Z" fill="#1D2129"/>
<path fill-rule="evenodd" clip-rule="evenodd" d="M43 32C43 32.574 42.785 33.1479 42.3549 33.5858L37.6825 38.3432C36.8223 39.2189 35.4277 39.2189 34.5675 38.3432L32.5834 36.3229L32.5526 36.2931C32.2295 35.9958 31.731 36.0051 31.4187 36.3208L29.4325 38.3432C28.5723 39.219 27.1777 39.2189 26.3175 38.3432L21.6451 33.5858C21.215 33.1479 21 32.574 21 32C21 31.426 21.215 30.8521 21.6451 30.4142L26.3175 25.6569C27.1777 24.781 28.5723 24.781 29.4325 25.6569L31.4187 27.6792C31.731 27.9949 32.2295 28.0042 32.5526 27.7069L32.5834 27.6771L34.5675 25.6569C35.4277 24.7811 36.8223 24.7811 37.6825 25.6569L42.3549 30.4142C42.785 30.8521 43 31.426 43 32ZM31.8916 32C31.8916 31.8075 31.8195 31.6151 31.6756 31.4685L29.6978 29.4547C29.6959 29.4527 29.6939 29.4508 29.692 29.4489L28.3924 28.1255C28.1063 27.8341 27.6437 27.8342 27.3576 28.1255L24.0743 31.4685C23.9303 31.6151 23.8583 31.8075 23.8583 32C23.8583 32.1925 23.9303 32.3849 24.0743 32.5315L27.3576 35.8745C27.6437 36.1658 28.1063 36.1659 28.3924 35.8745L29.692 34.5512C29.6939 34.5492 29.6959 34.5473 29.6978 34.5453L31.6756 32.5315C31.8195 32.3849 31.8916 32.1925 31.8916 32ZM34.75 32C34.75 32.574 34.535 33.1479 34.1049 33.5858L33.66 34.0387C33.8912 34.1781 34.1092 34.3488 34.308 34.5513L35.6075 35.8745C35.8936 36.1659 36.3562 36.1658 36.6423 35.8745L39.9256 32.5315C40.0695 32.3849 40.1416 32.1925 40.1416 32C40.1416 31.8075 40.0696 31.6151 39.9256 31.4685L36.6423 28.1255C36.3562 27.8342 35.8936 27.8341 35.6075 28.1255L34.308 29.4487C34.1092 29.6512 33.8912 29.822 33.66 29.9613L34.1049 30.4142C34.535 30.8521 34.75 31.426 34.75 32Z" fill="white"/>
<path d="M50.2089 8C50.6451 8.00005 51.0174 8.28284 51.0892 8.66855L51.9938 13.5342C52.0391 13.778 51.8294 14 51.5537 14H12.4463C12.1706 14 11.9609 13.778 12.0062 13.5342L12.9108 8.66855C12.9826 8.28282 13.3549 8.00002 13.7911 8H16.3818L18.3663 4.44219C18.5175 4.17117 18.8266 4 19.1646 4H44.8354C45.1734 4.00001 45.4823 4.17121 45.6335 4.44219L47.618 8H50.2089Z" fill="#1D2129"/>
</svg>
