<svg width="256" height="256" viewBox="0 0 256 256" fill="none" xmlns="http://www.w3.org/2000/svg">
<path d="M72.6314 228.929C73.5986 235.272 79.6565 240 86.8149 240H169.185C176.343 240 182.401 235.272 183.369 228.929L207.967 67.6324C208.26 65.711 206.589 64 204.421 64H51.5793C49.4107 64 47.7404 65.711 48.0334 67.6324L72.6314 228.929Z" fill="#1D2129"/>
<path fill-rule="evenodd" clip-rule="evenodd" d="M173 128C173 130.296 172.12 132.592 170.361 134.343L151.247 153.373C147.728 156.876 142.022 156.876 138.503 153.373L130.387 145.292L130.261 145.172C128.939 143.983 126.899 144.02 125.622 145.283L117.497 153.373C113.978 156.876 108.272 156.876 104.753 153.373L85.6392 134.343C83.8797 132.592 83 130.296 83 128C83 125.704 83.8797 123.408 85.6392 121.657L104.753 102.627C108.272 99.1242 113.978 99.1242 117.497 102.627L125.622 110.717C126.899 111.98 128.939 112.017 130.261 110.828L130.387 110.708L138.503 102.627C142.022 99.1242 147.728 99.1242 151.247 102.627L170.361 121.657C172.12 123.408 173 125.704 173 128ZM127.557 128C127.557 127.23 127.262 126.46 126.673 125.874L118.582 117.819C118.574 117.811 118.566 117.803 118.558 117.795L113.242 112.502C112.071 111.337 110.179 111.337 109.008 112.502L95.5767 125.874C94.9877 126.46 94.6929 127.23 94.6929 128C94.6929 128.77 94.9877 129.54 95.5767 130.126L109.008 143.498C110.179 144.663 112.071 144.663 113.242 143.498L118.558 138.205C118.566 138.197 118.574 138.189 118.582 138.181L126.673 130.126C127.262 129.54 127.557 128.77 127.557 128ZM139.25 128C139.25 130.296 138.37 132.592 136.611 134.343L134.791 136.155C135.737 136.712 136.629 137.395 137.442 138.205L142.758 143.498C143.928 144.663 145.821 144.663 146.991 143.498L160.423 130.126C161.012 129.54 161.307 128.77 161.307 128C161.307 127.23 161.012 126.46 160.423 125.874L146.991 112.502C145.821 111.337 143.928 111.337 142.758 112.502L137.442 117.795C136.629 118.605 135.737 119.288 134.791 119.845L136.611 121.657C138.37 123.408 139.25 125.704 139.25 128Z" fill="white"/>
<path d="M200.836 32C202.58 32.0002 204.07 33.1313 204.357 34.6742L207.975 54.1367C208.157 55.1119 207.318 55.9999 206.215 56H49.7853C48.6823 56 47.8434 55.112 48.0247 54.1367L51.6434 34.6742C51.9303 33.1313 53.4194 32.0001 55.1644 32H65.5271L73.4652 17.7688C74.0699 16.6847 75.3064 16 76.6585 16H179.341C180.693 16 181.929 16.6848 182.534 17.7688L190.472 32H200.836Z" fill="#1D2129"/>
</svg>
