<svg width="96" height="96" viewBox="0 0 96 96" fill="none" xmlns="http://www.w3.org/2000/svg">
<path d="M27.2368 85.8485C27.5995 88.2269 29.8712 90 32.5556 90H63.4444C66.1288 90 68.4005 88.2269 68.7632 85.8485L77.9875 25.3621C78.0973 24.6416 77.471 24 76.6578 24H19.3422C18.529 24 17.9027 24.6416 18.0125 25.3621L27.2368 85.8485Z" fill="#1D2129"/>
<path fill-rule="evenodd" clip-rule="evenodd" d="M64 48C64 48.8199 63.6872 49.6399 63.0616 50.2655L56.2655 57.0616C55.0143 58.3128 52.9857 58.3128 51.7345 57.0616L48.8486 54.1755L48.8038 54.133C48.3338 53.7083 47.6087 53.7216 47.1545 54.1726L44.2655 57.0616C43.0143 58.3128 40.9857 58.3128 39.7345 57.0616L32.9384 50.2655C32.3128 49.6399 32 48.8199 32 48C32 47.1801 32.3128 46.3601 32.9384 45.7346L39.7345 38.9384C40.9857 37.6872 43.0143 37.6872 44.2655 38.9384L47.1545 41.8274C47.6087 42.2784 48.3338 42.2917 48.8038 41.867L48.8486 41.8245L51.7345 38.9384C52.9857 37.6872 55.0143 37.6872 56.2655 38.9384L63.0616 45.7346C63.6872 46.3601 64 47.1801 64 48ZM47.8424 48C47.8424 47.7251 47.7375 47.4501 47.5281 47.2407L44.6514 44.3639C44.6486 44.3611 44.6457 44.3583 44.6429 44.3555L42.7526 42.465C42.3364 42.0488 41.6636 42.0488 41.2474 42.465L36.4717 47.2407C36.2623 47.4501 36.1575 47.725 36.1575 48C36.1575 48.275 36.2623 48.5499 36.4717 48.7593L41.2474 53.535C41.6636 53.9512 42.3364 53.9512 42.7526 53.535L44.6429 51.6445C44.6457 51.6417 44.6486 51.6389 44.6514 51.6361L47.5281 48.7593C47.7375 48.5499 47.8424 48.275 47.8424 48ZM52 48C52 48.8199 51.6872 49.6399 51.0616 50.2655L50.4146 50.9124C50.7508 51.1115 51.0679 51.3555 51.3571 51.6447L53.2472 53.535C53.6634 53.9512 54.3362 53.9512 54.7524 53.535L59.5281 48.7593C59.7375 48.5499 59.8424 48.275 59.8424 48C59.8424 47.725 59.7375 47.4501 59.5281 47.2407L54.7524 42.465C54.3362 42.0488 53.6634 42.0488 53.2472 42.465L51.3571 44.3553C51.0679 44.6445 50.7508 44.8885 50.4146 45.0876L51.0616 45.7346C51.6872 46.3601 52 47.1801 52 48Z" fill="white"/>
<path d="M75.3133 12C75.9677 12.0001 76.5262 12.4243 76.6337 13.0028L77.9907 20.3013C78.0587 20.667 77.7441 21 77.3305 21H18.6695C18.2559 21 17.9413 20.667 18.0093 20.3013L19.3663 13.0028C19.4739 12.4242 20.0323 12 20.6867 12H24.5727L27.5494 6.66328C27.7762 6.25675 28.2399 6 28.7469 6H67.2531C67.7601 6.00001 68.2235 6.25681 68.4502 6.66328L71.427 12H75.3133Z" fill="#1D2129"/>
</svg>
