<svg width="128" height="128" viewBox="0 0 128 128" fill="none" xmlns="http://www.w3.org/2000/svg">
<rect width="128" height="128" rx="24" fill="#1D2129"/>
<path fill-rule="evenodd" clip-rule="evenodd" d="M106 64C106 66.1318 105.179 68.2637 103.537 69.8902L85.6968 87.5603C82.4125 90.8132 77.0874 90.8132 73.8032 87.5603L66.2276 80.0564L66.11 79.9458C64.8763 78.8417 62.9728 78.8762 61.7806 80.0487L54.1968 87.5603C50.9125 90.8132 45.5875 90.8132 42.3032 87.5603L24.4632 69.8902C22.8211 68.2637 22 66.1318 22 64C22 61.8682 22.8211 59.7363 24.4632 58.1098L42.3032 40.4397C45.5875 37.1868 50.9125 37.1867 54.1968 40.4397L61.7806 47.9513C62.9728 49.1239 64.8763 49.1583 66.11 48.0542L66.2276 47.9436L73.8032 40.4397C77.0875 37.1868 82.4125 37.1868 85.6968 40.4397L103.537 58.1098C105.179 59.7363 106 61.8682 106 64ZM63.5862 64C63.5862 63.2851 63.311 62.5703 62.7613 62.0259L55.2099 54.5461C55.2025 54.5388 55.1949 54.5316 55.1876 54.5243L50.2256 49.6089C49.1332 48.5268 47.3669 48.5269 46.2744 49.6089L33.7382 62.0259C33.1885 62.5703 32.9133 63.2851 32.9133 64C32.9133 64.7149 33.1885 65.4297 33.7382 65.9741L46.2744 78.3911C47.3669 79.4731 49.1332 79.4732 50.2256 78.3911L55.1876 73.4757C55.1949 73.4684 55.2025 73.4612 55.2099 73.454L62.7613 65.9741C63.311 65.4297 63.5862 64.7149 63.5862 64ZM74.5 64C74.5 66.1318 73.6789 68.2637 72.0368 69.8902L70.3383 71.5723C71.2208 72.0899 72.0533 72.7243 72.8124 73.4762L77.774 78.3911C78.8664 79.4732 80.6326 79.4731 81.7251 78.3911L94.2613 65.9741C94.811 65.4297 95.0862 64.7149 95.0862 64C95.0862 63.2851 94.811 62.5703 94.2613 62.0259L81.7251 49.6089C80.6326 48.5269 78.8664 48.5268 77.774 49.6089L72.8124 54.5239C72.0533 55.2758 71.2208 55.9101 70.3383 56.4277L72.0368 58.1098C73.6789 59.7363 74.5 61.8682 74.5 64Z" fill="white"/>
</svg>
