<svg width="48" height="48" viewBox="0 0 48 48" fill="none" xmlns="http://www.w3.org/2000/svg">
<rect width="48" height="48" rx="6" fill="#1D2129"/>
<path fill-rule="evenodd" clip-rule="evenodd" d="M40 24C40 24.8199 39.6872 25.6399 39.0616 26.2655L32.2655 33.0616C31.0143 34.3128 28.9857 34.3128 27.7345 33.0616L24.8486 30.1755L24.8038 30.133C24.3338 29.7083 23.6087 29.7216 23.1545 30.1726L20.2655 33.0616C19.0143 34.3128 16.9857 34.3128 15.7345 33.0616L8.93837 26.2655C8.3128 25.6399 8 24.8199 8 24C8 23.1801 8.31279 22.3601 8.93837 21.7346L15.7345 14.9384C16.9857 13.6872 19.0143 13.6872 20.2655 14.9384L23.1545 17.8274C23.6087 18.2784 24.3338 18.2917 24.8038 17.867L24.8486 17.8245L27.7345 14.9384C28.9857 13.6872 31.0143 13.6872 32.2655 14.9384L39.0616 21.7346C39.6872 22.3601 40 23.1801 40 24ZM23.8424 24C23.8424 23.7251 23.7375 23.4501 23.5281 23.2407L20.6514 20.3639C20.6486 20.3611 20.6457 20.3583 20.6429 20.3555L18.7526 18.465C18.3364 18.0488 17.6636 18.0488 17.2474 18.465L12.4717 23.2407C12.2623 23.4501 12.1575 23.725 12.1575 24C12.1575 24.275 12.2623 24.5499 12.4717 24.7593L17.2474 29.535C17.6636 29.9512 18.3364 29.9512 18.7526 29.535L20.6429 27.6445C20.6457 27.6417 20.6486 27.6389 20.6514 27.6361L23.5281 24.7593C23.7375 24.5499 23.8424 24.275 23.8424 24ZM28 24C28 24.8199 27.6872 25.6399 27.0616 26.2655L26.4146 26.9124C26.7508 27.1115 27.0679 27.3555 27.3571 27.6447L29.2472 29.535C29.6634 29.9512 30.3362 29.9512 30.7524 29.535L35.5281 24.7593C35.7375 24.5499 35.8424 24.275 35.8424 24C35.8424 23.725 35.7375 23.4501 35.5281 23.2407L30.7524 18.465C30.3362 18.0488 29.6634 18.0488 29.2472 18.465L27.3571 20.3553C27.0679 20.6445 26.7508 20.8885 26.4146 21.0876L27.0616 21.7346C27.6872 22.3601 28 23.1801 28 24Z" fill="white"/>
</svg>
