<svg width="64" height="64" viewBox="0 0 64 64" fill="none" xmlns="http://www.w3.org/2000/svg">
<rect width="64" height="64" rx="8" fill="#1D2129"/>
<path fill-rule="evenodd" clip-rule="evenodd" d="M54 32C54 33.1479 53.5699 34.2958 52.7097 35.1716L43.365 44.6863C41.6447 46.4379 38.8553 46.4379 37.135 44.6863L33.1668 40.6458L33.1053 40.5862C32.459 39.9917 31.462 40.0102 30.8375 40.6416L26.865 44.6863C25.1447 46.4379 22.3553 46.4379 20.635 44.6863L11.2903 35.1716C10.4301 34.2958 10 33.1479 10 32C10 30.8521 10.4301 29.7042 11.2903 28.8284L20.635 19.3137C22.3553 17.5621 25.1447 17.5621 26.865 19.3137L30.8375 23.3584C31.462 23.9898 32.459 24.0083 33.1053 23.4138L33.1668 23.3542L37.135 19.3137C38.8553 17.5621 41.6447 17.5621 43.365 19.3137L52.7097 28.8284C53.5699 29.7042 54 30.8521 54 32ZM31.7832 32C31.7832 31.6151 31.6391 31.2302 31.3512 30.937L27.3957 26.9094C27.3918 26.9055 27.3878 26.9016 27.384 26.8977L24.7848 24.251C24.2126 23.6683 23.2874 23.6683 22.7152 24.251L16.1486 30.937C15.8607 31.2302 15.7165 31.6151 15.7165 32C15.7165 32.3849 15.8607 32.7698 16.1486 33.063L22.7152 39.749C23.2874 40.3317 24.2126 40.3317 24.7848 39.749L27.384 37.1023C27.3878 37.0984 27.3918 37.0945 27.3957 37.0906L31.3512 33.063C31.6391 32.7698 31.7832 32.3849 31.7832 32ZM37.5 32C37.5 33.1479 37.0699 34.2958 36.2097 35.1716L35.3201 36.0774C35.7823 36.3561 36.2184 36.6977 36.616 37.1026L39.2149 39.749C39.7872 40.3317 40.7123 40.3317 41.2846 39.749L47.8512 33.063C48.1391 32.7698 48.2832 32.3849 48.2832 32C48.2833 31.6151 48.1391 31.2302 47.8512 30.937L41.2846 24.251C40.7123 23.6683 39.7872 23.6683 39.2149 24.251L36.616 26.8975C36.2184 27.3023 35.7823 27.6439 35.3201 27.9226L36.2097 28.8284C37.0699 29.7042 37.5 30.8521 37.5 32Z" fill="white"/>
</svg>
