<svg width="256" height="256" viewBox="0 0 256 256" fill="none" xmlns="http://www.w3.org/2000/svg">
<path fill-rule="evenodd" clip-rule="evenodd" d="M208 128C208 132.1 206.436 136.199 203.308 139.327L169.327 173.308C163.071 179.564 152.928 179.564 146.673 173.308L132.243 158.878L132.019 158.665C129.669 156.542 126.044 156.608 123.773 158.863L109.327 173.308C103.072 179.564 92.9285 179.564 86.6727 173.308L52.6918 139.327C49.564 136.199 48 132.1 48 128C48 123.9 49.564 119.801 52.6918 116.673L86.6727 82.6918C92.9285 76.4361 103.071 76.4361 109.327 82.6918L123.773 97.1371C126.044 99.392 129.669 99.4583 132.019 97.335L132.243 97.1223L146.673 82.6918C152.928 76.4361 163.071 76.4361 169.327 82.6918L203.308 116.673C206.436 119.801 208 123.9 208 128ZM127.212 128C127.212 126.625 126.688 125.251 125.641 124.204L111.257 109.819C111.243 109.805 111.228 109.792 111.214 109.778L101.763 100.325C99.6822 98.2438 96.3179 98.244 94.237 100.325L70.3585 124.204C69.3115 125.251 68.7873 126.625 68.7873 128C68.7873 129.375 69.3115 130.749 70.3585 131.796L94.237 155.675C96.3179 157.756 99.6822 157.756 101.763 155.675L111.214 146.223C111.228 146.208 111.243 146.195 111.257 146.181L125.641 131.796C126.688 130.749 127.212 129.375 127.212 128ZM148 128C148 132.1 146.436 136.199 143.308 139.327L140.073 142.562C141.754 143.558 143.34 144.777 144.786 146.223L154.236 155.675C156.317 157.756 159.681 157.756 161.762 155.675L185.641 131.796C186.688 130.749 187.212 129.375 187.212 128C187.212 126.625 186.688 125.251 185.641 124.204L161.762 100.325C159.681 98.244 156.317 98.2438 154.236 100.325L144.786 109.777C143.34 111.223 141.754 112.443 140.073 113.438L143.308 116.673C146.436 119.801 148 123.9 148 128Z" fill="#1D2129"/>
</svg>
