<svg width="96" height="96" viewBox="0 0 96 96" fill="none" xmlns="http://www.w3.org/2000/svg">
<path fill-rule="evenodd" clip-rule="evenodd" d="M80 48C80 49.6399 79.3744 51.2798 78.1233 52.5309L64.5309 66.1233C62.0286 68.6255 57.9714 68.6256 55.4691 66.1233L49.6972 60.3511L49.6076 60.266C48.6676 59.4167 47.2174 59.4432 46.309 60.3452L40.5309 66.1233C38.0286 68.6256 33.9714 68.6256 31.4691 66.1233L17.8767 52.5309C16.6256 51.2798 16 49.6399 16 48C16 46.3601 16.6256 44.7203 17.8767 43.4691L31.4691 29.8767C33.9714 27.3744 38.0286 27.3744 40.5309 29.8767L46.309 35.6548C47.2174 36.5568 48.6676 36.5833 49.6076 35.734L49.6972 35.6489L55.4691 29.8767C57.9714 27.3744 62.0286 27.3745 64.5309 29.8767L78.1233 43.4691C79.3744 44.7203 80 46.3601 80 48ZM47.6847 48C47.6847 47.4501 47.4751 46.9003 47.0563 46.4815L41.3028 40.7277C41.2971 40.7221 41.2914 40.7166 41.2858 40.711L37.5052 36.93C36.6729 36.0975 35.3272 36.0976 34.4948 36.93L24.9434 46.4815C24.5246 46.9003 24.3149 47.4501 24.3149 48C24.3149 48.5499 24.5246 49.0998 24.9434 49.5186L34.4948 59.0701C35.3272 59.9024 36.6729 59.9025 37.5052 59.0701L41.2858 55.289C41.2914 55.2834 41.2971 55.2779 41.3028 55.2723L47.0563 49.5186C47.475 49.0998 47.6847 48.5499 47.6847 48ZM56 48C56 49.6399 55.3744 51.2798 54.1233 52.5309L52.8292 53.8249C53.5016 54.223 54.1358 54.711 54.7142 55.2894L58.4944 59.0701C59.3268 59.9025 60.6725 59.9024 61.5049 59.0701L71.0563 49.5186C71.4751 49.0998 71.6847 48.5499 71.6847 48C71.6847 47.4501 71.4751 46.9003 71.0563 46.4815L61.5049 36.93C60.6725 36.0976 59.3268 36.0975 58.4944 36.93L54.7142 40.7107C54.1358 41.2891 53.5016 41.777 52.8292 42.1752L54.1233 43.4691C55.3744 44.7203 56 46.3601 56 48Z" fill="#1D2129"/>
</svg>
