<svg width="96" height="96" viewBox="0 0 96 96" fill="none" xmlns="http://www.w3.org/2000/svg">
<path d="M56.9631 26.2521C59.9658 23.2493 64.8344 23.2493 67.8371 26.2521L84.148 42.5629C87.1508 45.5657 87.1508 50.4342 84.148 53.437L67.8371 69.7479C64.8344 72.7506 59.9658 72.7506 56.9631 69.7479L50.0366 62.8214C48.9119 61.6967 47.0883 61.6967 45.9636 62.8214L48.0001 60.7849L40.6522 53.437C37.6495 50.4342 37.6495 45.5657 40.6522 42.5629L48.0001 35.215L45.9636 33.1786C47.0883 34.3032 48.9119 34.3033 50.0366 33.1786L56.9631 26.2521Z" fill="#0055FF" fill-opacity="0.3"/>
<path d="M28.163 26.2521C31.1658 23.2493 36.0342 23.2493 39.037 26.2521L55.3479 42.563C58.3507 45.5658 58.3507 50.4342 55.3479 53.437L39.037 69.7479C36.0342 72.7507 31.1658 72.7507 28.163 69.7479L11.852 53.437C8.84928 50.4342 8.84929 45.5658 11.852 42.563L28.163 26.2521Z" fill="#0055FF"/>
</svg>
