<svg width="128" height="128" viewBox="0 0 128 128" fill="none" xmlns="http://www.w3.org/2000/svg">
<path fill-rule="evenodd" clip-rule="evenodd" d="M75.9506 35.0028C79.9543 30.9991 86.4457 30.9991 90.4494 35.0028L112.197 56.7506C116.201 60.7543 116.201 67.2457 112.197 71.2493L90.4494 92.9971C86.4457 97.0008 79.9543 97.0007 75.9506 92.9971L66.7153 83.7618C65.2157 82.2624 62.7843 82.2623 61.2847 83.7618L52.0494 92.9971C48.0457 97.0008 41.5543 97.0007 37.5506 92.9971L15.8028 71.2493C11.7991 67.2456 11.7991 60.7543 15.8028 56.7506L37.5506 35.0028C41.5543 30.9991 48.0457 30.9991 52.0494 35.0028L61.2847 44.2381C62.7843 45.7375 65.2158 45.7376 66.7153 44.2381L75.9506 35.0028ZM88.1294 44.2818C85.4069 41.5594 80.9928 41.5593 78.2703 44.2818L66.715 55.8369C65.2154 57.3365 62.784 57.3365 61.2844 55.8369L49.7294 44.2818C47.0069 41.5593 42.5928 41.5593 39.8703 44.2818L25.0819 59.0703C22.3594 61.7928 22.3594 66.2068 25.0819 68.9293L39.8703 83.7181C42.5928 86.4405 47.0069 86.4405 49.7294 83.7181L61.2844 72.1628C62.784 70.6632 65.2154 70.6631 66.715 72.1628L78.2703 83.7181C80.9928 86.4405 85.4069 86.4405 88.1294 83.7181L102.918 68.9293C105.641 66.2068 105.641 61.7927 102.918 59.0703L88.1294 44.2818Z" fill="#111111"/>
</svg>
