<svg width="128" height="128" viewBox="0 0 128 128" fill="none" xmlns="http://www.w3.org/2000/svg">
<path d="M75.9506 35.0028C79.9543 30.9991 86.4457 30.9991 90.4494 35.0028L112.197 56.7506C116.201 60.7543 116.201 67.2456 112.197 71.2493L90.4494 92.9971C86.4457 97.0008 79.9543 97.0008 75.9506 92.9971L66.7153 83.7618C65.2157 82.2624 62.7843 82.2623 61.2847 83.7618L52.0494 92.9971C48.0457 97.0008 41.5543 97.0008 37.5506 92.9971L15.8028 71.2493C11.7991 67.2456 11.7991 60.7543 15.8028 56.7506L37.5506 35.0028C41.5543 30.9991 48.0457 30.9991 52.0494 35.0028L61.2847 44.2381C62.7843 45.7376 65.2157 45.7377 66.7153 44.2381L75.9506 35.0028Z" fill="#111111"/>
</svg>
