<svg width="256" height="256" viewBox="0 0 256 256" fill="none" xmlns="http://www.w3.org/2000/svg">
<path d="M151.901 70.0058C159.909 61.9984 172.891 61.9985 180.899 70.0058L224.394 113.501C232.402 121.509 232.402 134.492 224.394 142.499L180.899 185.995C172.891 194.002 159.909 194.002 151.901 185.995L133.431 167.524C130.431 164.525 125.569 164.525 122.569 167.524L104.099 185.995C96.0914 194.002 83.1086 194.002 75.1012 185.995L31.6056 142.499C23.5983 134.492 23.5983 121.509 31.6056 113.501L75.1012 70.0058C83.1086 61.9984 96.0914 61.9984 104.099 70.0058L122.569 88.4764C125.569 91.4755 130.431 91.4756 133.431 88.4764L151.901 70.0058Z" fill="#111111"/>
</svg>
