<svg width="64" height="64" viewBox="0 0 64 64" fill="none" xmlns="http://www.w3.org/2000/svg">
<path fill-rule="evenodd" clip-rule="evenodd" d="M37.9753 17.5014C39.9771 15.4995 43.2228 15.4996 45.2247 17.5014L56.0986 28.3753C58.1004 30.3771 58.1004 33.6228 56.0986 35.6247L45.2247 46.4986C43.2229 48.5004 39.9772 48.5004 37.9753 46.4986L33.3577 41.8809C32.6078 41.1312 31.3921 41.1311 30.6423 41.8809L26.0247 46.4986C24.0229 48.5004 20.7772 48.5004 18.7753 46.4986L7.90141 35.6247C5.89956 33.6228 5.89956 30.3771 7.90141 28.3753L18.7753 17.5014C20.7772 15.4995 24.0228 15.4995 26.0247 17.5014L30.6423 22.119C31.3922 22.8688 32.6079 22.8688 33.3577 22.119L37.9753 17.5014ZM44.0647 22.1409C42.7034 20.7797 40.4964 20.7797 39.1352 22.1409L33.3575 27.9185C32.6077 28.6682 31.392 28.6682 30.6422 27.9184L24.8647 22.1409C23.5034 20.7797 21.2964 20.7797 19.9352 22.1409L12.5409 29.5351C11.1797 30.8964 11.1797 33.1034 12.5409 34.4647L19.9352 41.859C21.2964 43.2203 23.5034 43.2202 24.8647 41.859L30.6422 36.0814C31.392 35.3316 32.6077 35.3316 33.3575 36.0814L39.1352 41.859C40.4964 43.2203 42.7034 43.2202 44.0647 41.859L51.4591 34.4647C52.8203 33.1034 52.8203 30.8964 51.4591 29.5351L44.0647 22.1409Z" fill="#111111"/>
</svg>
