<svg width="256" height="256" viewBox="0 0 256 256" fill="none" xmlns="http://www.w3.org/2000/svg">
<path d="M151.902 70.0058C159.909 61.9984 172.892 61.9984 180.899 70.0058L224.395 113.501C232.402 121.509 232.402 134.492 224.395 142.499L180.899 185.995C172.892 194.002 159.909 194.002 151.902 185.995L133.431 167.524C130.432 164.525 125.569 164.525 122.57 167.524L128 162.093L108.406 142.499C100.399 134.492 100.399 121.509 108.406 113.501L128 93.907L122.57 88.4764C125.569 91.4755 130.432 91.4756 133.431 88.4764L151.902 70.0058Z" fill="#0055FF" fill-opacity="0.3"/>
<path d="M75.1015 70.0055C83.1088 61.9982 96.0913 61.9982 104.099 70.0055L147.595 113.501C155.602 121.509 155.602 134.491 147.595 142.499L104.099 185.994C96.0913 194.002 83.1088 194.002 75.1015 185.994L31.6056 142.499C23.5983 134.491 23.5983 121.509 31.6056 113.501L75.1015 70.0055Z" fill="#0055FF"/>
</svg>
