<svg width="256" height="256" viewBox="0 0 256 256" fill="none" xmlns="http://www.w3.org/2000/svg">
<path fill-rule="evenodd" clip-rule="evenodd" d="M151.901 70.0055C159.909 61.9982 172.891 61.9983 180.899 70.0055L224.394 113.501C232.402 121.509 232.402 134.491 224.394 142.499L180.899 185.994C172.891 194.002 159.909 194.001 151.901 185.994L133.431 167.524C130.431 164.525 125.569 164.525 122.569 167.524L104.099 185.994C96.0915 194.002 83.1086 194.001 75.1012 185.994L31.6056 142.499C23.5983 134.491 23.5983 121.509 31.6056 113.501L75.1012 70.0055C83.1086 61.9982 96.0914 61.9982 104.099 70.0055L122.569 88.4761C125.569 91.4751 130.432 91.4753 133.431 88.4761L151.901 70.0055ZM176.259 88.5636C170.814 83.1187 161.986 83.1187 156.541 88.5636L133.43 111.674C130.431 114.673 125.568 114.673 122.569 111.674L99.4587 88.5636C94.0137 83.1186 85.1856 83.1186 79.7406 88.5636L50.1637 118.141C44.7187 123.586 44.7187 132.414 50.1637 137.859L79.7406 167.436C85.1856 172.881 94.0137 172.881 99.4587 167.436L122.569 144.326C125.568 141.326 130.431 141.326 133.43 144.326L156.541 167.436C161.986 172.881 170.814 172.881 176.259 167.436L205.836 137.859C211.281 132.414 211.281 123.585 205.836 118.141L176.259 88.5636Z" fill="#111111"/>
</svg>
