<svg width="64" height="64" viewBox="0 0 64 64" fill="none" xmlns="http://www.w3.org/2000/svg">
<path d="M37.9754 17.5014C39.9772 15.4995 43.2229 15.4995 45.2248 17.5014L56.0987 28.3753C58.1005 30.3771 58.1005 33.6228 56.0987 35.6247L45.2248 46.4986C43.2229 48.5004 39.9772 48.5004 37.9754 46.4986L33.3577 41.8809C32.6079 41.1311 31.3922 41.1311 30.6424 41.8809L32.0001 40.5233L27.1015 35.6247C25.0996 33.6228 25.0996 30.3771 27.1015 28.3753L32.0001 23.4767L30.6424 22.119C31.3922 22.8688 32.6079 22.8688 33.3577 22.119L37.9754 17.5014Z" fill="#0055FF" fill-opacity="0.3"/>
<path d="M18.7754 17.5014C20.7772 15.4995 24.0228 15.4995 26.0247 17.5014L36.8986 28.3753C38.9005 30.3772 38.9005 33.6228 36.8986 35.6247L26.0247 46.4986C24.0228 48.5005 20.7772 48.5005 18.7754 46.4986L7.90141 35.6247C5.89956 33.6228 5.89956 30.3772 7.90141 28.3753L18.7754 17.5014Z" fill="#0055FF"/>
</svg>
