<svg width="32" height="32" viewBox="0 0 32 32" fill="none" xmlns="http://www.w3.org/2000/svg">
<path d="M18.9877 8.75069C19.9886 7.74977 21.6115 7.74978 22.6124 8.75069L28.0494 14.1876C29.0503 15.1886 29.0503 16.8114 28.0494 17.8123L22.6124 23.2493C21.6115 24.2502 19.9886 24.2502 18.9877 23.2493L16.6789 20.9405C16.304 20.5656 15.6961 20.5656 15.3212 20.9405L13.0124 23.2493C12.0115 24.2502 10.3886 24.2502 9.38772 23.2493L3.95076 17.8123C2.94984 16.8114 2.94984 15.1886 3.95076 14.1876L9.38772 8.75069C10.3886 7.74977 12.0115 7.74977 13.0124 8.75069L15.3212 11.0595C15.6961 11.4344 16.304 11.4344 16.6789 11.0595L18.9877 8.75069Z" fill="#111111"/>
</svg>
