<svg width="96" height="96" viewBox="0 0 96 96" fill="none" xmlns="http://www.w3.org/2000/svg">
<path d="M56.963 26.2521C59.9658 23.2493 64.8343 23.2494 67.8371 26.2521L84.1479 42.5629C87.1507 45.5657 87.1507 50.4342 84.1479 53.437L67.8371 69.7479C64.8343 72.7506 59.9658 72.7506 56.963 69.7479L50.0365 62.8214C48.9118 61.6968 47.0883 61.6967 45.9636 62.8214L39.0371 69.7479C36.0343 72.7506 31.1658 72.7506 28.163 69.7479L11.8522 53.437C8.84941 50.4342 8.84941 45.5657 11.8522 42.5629L28.163 26.2521C31.1658 23.2493 36.0343 23.2493 39.0371 26.2521L45.9636 33.1786C47.0883 34.3032 48.9118 34.3033 50.0365 33.1786L56.963 26.2521Z" fill="#111111"/>
</svg>
