<svg width="32" height="32" viewBox="0 0 32 32" fill="none" xmlns="http://www.w3.org/2000/svg">
<path fill-rule="evenodd" clip-rule="evenodd" d="M18.9876 8.75069C19.9885 7.74977 21.6114 7.74978 22.6123 8.75069L28.0492 14.1876C29.0501 15.1886 29.0501 16.8114 28.0492 17.8123L22.6123 23.2493C21.6114 24.2502 19.9885 24.2502 18.9876 23.2493L16.6788 20.9405C16.3039 20.5656 15.696 20.5656 15.3211 20.9405L13.0123 23.2493C12.0114 24.2502 10.3885 24.2502 9.38759 23.2493L3.95064 17.8123C2.94972 16.8114 2.94972 15.1886 3.95064 14.1876L9.38759 8.75069C10.3885 7.74977 12.0114 7.74977 13.0123 8.75069L15.3211 11.0595C15.696 11.4344 16.3039 11.4344 16.6788 11.0595L18.9876 8.75069ZM22.0323 11.0705C21.3517 10.3898 20.2481 10.3898 19.5675 11.0705L16.6787 13.9592C16.3038 14.3341 15.6959 14.3341 15.321 13.9592L12.4323 11.0705C11.7517 10.3898 10.6481 10.3898 9.96752 11.0705L6.27041 14.7676C5.58978 15.4482 5.58978 16.5517 6.27041 17.2323L9.96752 20.9295C10.6481 21.6101 11.7517 21.6101 12.4323 20.9295L15.321 18.0407C15.6959 17.6658 16.3038 17.6658 16.6787 18.0407L19.5675 20.9295C20.2481 21.6101 21.3517 21.6101 22.0323 20.9295L25.7295 17.2323C26.4101 16.5517 26.4101 15.4482 25.7295 14.7676L22.0323 11.0705Z" fill="#111111"/>
</svg>
