<svg width="128" height="128" viewBox="0 0 128 128" fill="none" xmlns="http://www.w3.org/2000/svg">
<path d="M75.9508 35.003C79.9545 30.9993 86.4458 30.9993 90.4495 35.003L112.197 56.7508C116.201 60.7545 116.201 67.2459 112.197 71.2496L90.4495 92.9974C86.4458 97.0011 79.9545 97.0011 75.9508 92.9974L66.7155 83.7621C65.2158 82.2625 62.7844 82.2625 61.2848 83.7621L64.0001 81.0468L54.203 71.2496C50.1993 67.2459 50.1993 60.7545 54.203 56.7508L64.0001 46.9536L61.2848 44.2383C62.7844 45.7379 65.2159 45.7379 66.7155 44.2383L75.9508 35.003Z" fill="#0055FF" fill-opacity="0.3"/>
<path d="M37.5507 35.0028C41.5544 30.9991 48.0457 30.9991 52.0494 35.0028L73.7973 56.7507C77.801 60.7544 77.801 67.2456 73.7973 71.2493L52.0494 92.9972C48.0457 97.0009 41.5544 97.0009 37.5507 92.9972L15.8028 71.2493C11.7991 67.2456 11.7991 60.7544 15.8028 56.7507L37.5507 35.0028Z" fill="#0055FF"/>
</svg>
