<svg width="32" height="32" viewBox="0 0 32 32" fill="none" xmlns="http://www.w3.org/2000/svg">
<path d="M18.9877 8.75069C19.9886 7.74977 21.6115 7.74977 22.6124 8.75069L28.0493 14.1876C29.0503 15.1886 29.0503 16.8114 28.0493 17.8123L22.6124 23.2493C21.6115 24.2502 19.9886 24.2502 18.9877 23.2493L16.6789 20.9405C16.304 20.5656 15.6961 20.5656 15.3212 20.9405L16 20.2616L13.5507 17.8123C12.5498 16.8114 12.5498 15.1886 13.5507 14.1876L16 11.7383L15.3212 11.0595C15.6961 11.4344 16.304 11.4344 16.6789 11.0595L18.9877 8.75069Z" fill="#0055FF" fill-opacity="0.3"/>
<path d="M9.38762 8.75069C10.3885 7.74977 12.0114 7.74977 13.0123 8.75069L18.4493 14.1877C19.4502 15.1886 19.4502 16.8114 18.4493 17.8123L13.0123 23.2493C12.0114 24.2502 10.3885 24.2502 9.38762 23.2493L3.95064 17.8123C2.94972 16.8114 2.94972 15.1886 3.95064 14.1877L9.38762 8.75069Z" fill="#0055FF"/>
</svg>
