<svg width="96" height="96" viewBox="0 0 96 96" fill="none" xmlns="http://www.w3.org/2000/svg">
<path fill-rule="evenodd" clip-rule="evenodd" d="M56.9629 26.2521C59.9657 23.2493 64.8342 23.2494 67.837 26.2521L84.1478 42.5629C87.1505 45.5657 87.1506 50.4343 84.1478 53.437L67.837 69.7479C64.8342 72.7506 59.9657 72.7505 56.9629 69.7479L50.0364 62.8214C48.9117 61.6968 47.0881 61.6967 45.9635 62.8214L39.037 69.7479C36.0342 72.7506 31.1657 72.7505 28.1629 69.7479L11.852 53.437C8.84929 50.4342 8.84929 45.5657 11.852 42.5629L28.1629 26.2521C31.1657 23.2493 36.0342 23.2493 39.037 26.2521L45.9635 33.1786C47.0882 34.3031 48.9118 34.3032 50.0364 33.1786L56.9629 26.2521ZM66.097 33.2114C64.0551 31.1695 60.7445 31.1695 58.7027 33.2114L50.0362 41.8777C48.9115 43.0024 47.088 43.0024 45.9633 41.8777L37.297 33.2114C35.2551 31.1695 31.9445 31.1695 29.9027 33.2114L18.8113 44.3027C16.7695 46.3446 16.7695 49.6551 18.8113 51.697L29.9027 62.7886C31.9445 64.8304 35.2551 64.8304 37.297 62.7886L45.9632 54.1221C47.0879 52.9974 48.9115 52.9974 50.0362 54.1221L58.7027 62.7886C60.7445 64.8304 64.0551 64.8304 66.097 62.7886L77.1885 51.697C79.2303 49.6551 79.2304 46.3446 77.1885 44.3027L66.097 33.2114Z" fill="#111111"/>
</svg>
