<svg width="64" height="64" viewBox="0 0 64 64" fill="none" xmlns="http://www.w3.org/2000/svg">
<path d="M37.9753 17.5014C39.9771 15.4995 43.2228 15.4996 45.2247 17.5014L56.0986 28.3753C58.1004 30.3771 58.1004 33.6228 56.0986 35.6247L45.2247 46.4986C43.2228 48.5004 39.9772 48.5004 37.9753 46.4986L33.3577 41.8809C32.6078 41.1312 31.3921 41.1311 30.6423 41.8809L26.0247 46.4986C24.0228 48.5004 20.7772 48.5004 18.7753 46.4986L7.90141 35.6247C5.89956 33.6228 5.89956 30.3771 7.90141 28.3753L18.7753 17.5014C20.7772 15.4995 24.0228 15.4995 26.0247 17.5014L30.6423 22.119C31.3922 22.8688 32.6079 22.8688 33.3577 22.119L37.9753 17.5014Z" fill="#111111"/>
</svg>
